<svg preserveAspectRatio="none" width="100%" height="100%" overflow="visible" style="display: block;" viewBox="0 0 215.748 239.042" fill="none" xmlns="http://www.w3.org/2000/svg">
<g id="Vector 4" opacity="0.16" style="mix-blend-mode:multiply">
<path d="M0 2.66667C0 4.13943 1.19391 5.33333 2.66667 5.33333C4.13943 5.33333 5.33333 4.13943 5.33333 2.66667C5.33333 1.19391 4.13943 0 2.66667 0C1.19391 0 0 1.19391 0 2.66667ZM52.6667 144.598L52.9167 144.165V144.165L52.6667 144.598ZM2.66667 2.66667H2.16667V57.9954H2.66667H3.16667V2.66667H2.66667ZM52.6667 144.598L52.4167 145.031L215.248 239.042L215.498 238.609L215.748 238.176L52.9167 144.165L52.6667 144.598ZM2.66667 57.9954H2.16667C2.16667 93.9006 21.3219 127.078 52.4167 145.031L52.6667 144.598L52.9167 144.165C22.1313 126.391 3.16667 93.5433 3.16667 57.9954H2.66667Z" fill="var(--stroke-0, #5D524B)"/>
</g>
</svg>
