<svg preserveAspectRatio="none" width="100%" height="100%" overflow="visible" style="display: block;" viewBox="0 0 30 30" fill="none" xmlns="http://www.w3.org/2000/svg">
<g id="Frame" clip-path="url(#clip0_0_4)">
<g id="Vector">
</g>
<path id="Vector_2" fill-rule="evenodd" clip-rule="evenodd" d="M5.27855 6.70512C6.54278 5.44061 8.21719 4.66938 9.99988 4.53048C11.7826 4.39159 13.5562 4.89418 15.0011 5.94762C16.5276 4.84316 18.4138 4.35352 20.2849 4.57604C22.1559 4.79856 23.8747 5.71694 25.0996 7.14864C26.3245 8.58034 26.9659 10.4205 26.8962 12.3034C26.8265 14.1863 26.0509 15.9741 24.7236 17.3114L17.6523 24.3826C16.9491 25.0856 15.9954 25.4806 15.0011 25.4806C14.0067 25.4806 13.053 25.0856 12.3498 24.3826L5.27855 17.3126C3.87214 15.9061 3.08203 13.9985 3.08203 12.0095C3.08203 10.0205 3.87214 8.11163 5.27855 6.70512Z" fill="var(--fill-0, #F4F0E9)"/>
</g>
<defs>
<clipPath id="clip0_0_4">
<rect width="30" height="30" fill="white"/>
</clipPath>
</defs>
</svg>
