<svg preserveAspectRatio="none" width="100%" height="100%" overflow="visible" style="display: block;" viewBox="0 0 277.282 553.563" fill="none" xmlns="http://www.w3.org/2000/svg">
<path id="Vector 12" d="M271.949 2.66667C271.949 4.13943 273.143 5.33333 274.615 5.33333C276.088 5.33333 277.282 4.13943 277.282 2.66667C277.282 1.19391 276.088 0 274.615 0C273.143 0 271.949 1.19391 271.949 2.66667ZM0.500877 192.38L0.000876725 192.38V192.38H0.500877ZM0.5 455.006L1 455.006V455.006H0.5ZM270.439 553.563C270.715 553.563 270.939 553.34 270.939 553.063C270.939 552.787 270.715 552.563 270.439 552.563V553.063V553.563ZM274.615 2.66667H274.115V6.35024H274.615H275.115V2.66667H274.615ZM174.615 106.35V105.85H86.5327V106.35V106.85H174.615V106.35ZM0.500877 192.38H0.000876725L2.68221e-07 455.006H0.5H1L1.00088 192.38H0.500877ZM98.5503 553.063V553.563H270.439V553.063V552.563H98.5503V553.063ZM0.5 455.006L2.68221e-07 455.006C-0.00401735 509.437 44.1196 553.563 98.5503 553.563V553.063V552.563C44.6719 552.563 0.996023 508.884 1 455.006L0.5 455.006ZM86.5327 106.35V105.85C38.7432 105.85 0.00185046 144.591 0.000876725 192.38L0.500877 192.38L1.00088 192.38C1.00184 145.143 39.2955 106.85 86.5327 106.85V106.35ZM274.615 6.35024H274.115C274.115 61.3026 229.568 105.85 174.615 105.85V106.35V106.85C230.12 106.85 275.115 61.8549 275.115 6.35024H274.615Z" fill="var(--stroke-0, #2D2F18)"/>
</svg>
