<svg preserveAspectRatio="none" width="100%" height="100%" overflow="visible" style="display: block;" viewBox="0 0 1159.17 1280.73" fill="none" xmlns="http://www.w3.org/2000/svg">
<path id="Vector 11" d="M0.5 8.34285e-08L0.500097 581.041C0.500107 636.269 45.2716 681.041 100.5 681.041H344.318C348.874 681.041 352.853 677.962 353.998 673.553L367.529 621.421C368.751 616.714 375.434 616.714 376.656 621.421L405.97 734.355C407.192 739.062 413.874 739.062 415.096 734.355L428.019 684.57C428.558 682.491 430.435 681.04 432.582 681.04H463.509C465.656 681.04 467.532 679.589 468.072 677.51L470.501 668.152C471.723 663.446 478.405 663.446 479.627 668.152L482.056 677.51C482.596 679.589 484.472 681.04 486.619 681.04H515.828C517.975 681.04 519.851 679.589 520.391 677.51L533.078 628.631C534.3 623.925 540.983 623.925 542.204 628.631L565.08 716.759C566.301 721.466 572.984 721.465 574.206 716.759L582.561 684.57C583.1 682.491 584.976 681.04 587.124 681.04H608.606C610.753 681.04 612.63 682.491 613.169 684.57L613.762 686.853C614.983 691.559 621.666 691.559 622.888 686.853L656.726 556.491C657.948 551.784 664.63 551.784 665.852 556.49L712.02 734.355C713.242 739.062 719.925 739.062 721.147 734.355L734.069 684.57C734.609 682.491 736.485 681.04 738.632 681.04H746.03C748.177 681.04 750.053 679.589 750.593 677.51L753.022 668.153C754.243 663.446 760.926 663.446 762.148 668.153L769.739 697.398C770.961 702.104 777.643 702.104 778.865 697.398L793.346 641.612C794.567 636.906 801.25 636.906 802.472 641.612L811.79 677.51C812.329 679.589 814.205 681.04 816.353 681.04H1058.67C1113.89 681.04 1158.67 725.812 1158.67 781.04V1280.73" stroke="var(--stroke-0, #DBD6CE)"/>
</svg>
