<svg preserveAspectRatio="none" width="100%" height="100%" overflow="visible" style="display: block;" viewBox="0 0 91.5211 32.5408" fill="none" xmlns="http://www.w3.org/2000/svg">
<g id="logos" clip-path="url(#clip0_0_7)">
<path id="Vector" d="M18.3831 11.3221C15.0742 11.3221 12.4889 13.8339 12.4889 17.1964C12.4889 20.559 15.0089 23.0492 18.3831 23.0492C21.7572 23.0492 24.321 20.516 24.321 17.1749C24.321 13.8553 21.801 11.3221 18.3831 11.3221ZM18.4054 20.6259C16.5211 20.6259 15.1404 19.1625 15.1404 17.1972C15.1404 15.2096 16.4988 13.747 18.3831 13.747C20.2896 13.747 21.6696 15.2319 21.6696 17.1972C21.6696 19.1625 20.2896 20.6259 18.4054 20.6259ZM25.0437 13.8777H26.6872V22.8318H29.3164V11.5403H25.0437V13.8777ZM5.87204 13.7462C7.25279 13.7462 8.34828 14.5978 8.76416 15.8644H11.5471C11.0428 13.1567 8.80799 11.3221 5.89437 11.3221C2.58555 11.3221 0.00017702 13.8339 0.00017702 17.1972C0.00017702 20.5606 2.52024 23.0501 5.89437 23.0501C8.74266 23.0501 11.0213 21.2154 11.5256 18.4854H8.76416C8.36978 19.752 7.27427 20.6259 5.89355 20.6259C3.98696 20.6259 2.65086 19.1625 2.65086 17.1972C2.6517 15.2096 3.9663 13.7462 5.87204 13.7462ZM74.9999 16.105L73.0719 15.8214C72.1519 15.6908 71.4944 15.3849 71.4944 14.6639C71.4944 13.8777 72.3494 13.4849 73.5102 13.4849C74.7811 13.4849 75.592 14.0306 75.7672 14.926H78.3089C78.0237 12.6548 76.2708 11.3229 73.5763 11.3229C70.7933 11.3229 68.9529 12.7425 68.9529 14.7516C68.9529 16.673 70.1582 17.7876 72.5899 18.1365L74.5179 18.4201C75.4606 18.5507 75.9863 18.9227 75.9863 19.6214C75.9863 20.5168 75.0663 20.888 73.7954 20.888C72.2393 20.888 71.363 20.2547 71.2316 19.294H68.6461C68.8876 21.4998 70.6181 23.0501 73.7731 23.0501C76.6438 23.0501 78.5494 21.7396 78.5494 19.4899C78.5494 17.4808 77.1695 16.4324 74.9999 16.105ZM28.0018 6.88879C27.0378 6.88879 26.3145 7.58743 26.3145 8.54816C26.3145 9.50889 27.037 10.2075 28.0018 10.2075C28.9658 10.2075 29.6894 9.50889 29.6894 8.54816C29.6894 7.58743 28.9658 6.88879 28.0018 6.88879ZM66.5866 15.4064C66.5866 12.9607 65.0969 11.3229 61.9417 11.3229C58.9619 11.3229 57.2967 12.8301 56.9677 15.1451H59.5753C59.7068 14.2497 60.4079 13.5072 61.8979 13.5072C63.2349 13.5072 63.8921 14.0967 63.8921 14.8177C63.8921 15.757 62.6865 15.9967 61.1968 16.1497C59.181 16.3679 56.6833 17.0666 56.6833 19.6875C56.6833 21.719 58.1954 23.0286 60.6057 23.0286C62.4898 23.0286 63.6729 22.2423 64.265 20.9972C64.3527 22.1108 65.1853 22.8318 66.3469 22.8318H67.8806V20.4953H66.5874V15.4064H66.5866ZM64.0011 18.2456C64.0011 19.7528 62.6865 20.8665 61.0867 20.8665C60.1006 20.8665 59.268 20.4515 59.268 19.5784C59.268 18.4647 60.6047 18.1588 61.8318 18.0282C63.015 17.919 63.6722 17.6569 64.0011 17.1542V18.2456ZM50.0442 11.3221C48.5758 11.3221 47.3489 11.9339 46.4726 12.9599V6.77966H43.8434V22.8318H46.4286V21.3469C47.3049 22.4168 48.5544 23.0501 50.0442 23.0501C53.1991 23.0501 55.5878 20.5606 55.5878 17.1972C55.5878 13.8339 53.1554 11.3221 50.0442 11.3221ZM49.6499 20.6259C47.7656 20.6259 46.3849 19.1625 46.3849 17.1972C46.3849 15.2319 47.7872 13.747 49.6712 13.747C51.5779 13.747 52.9139 15.2105 52.9139 17.1972C52.9139 19.1625 51.5339 20.6259 49.6499 20.6259ZM37.5546 11.3221C35.8457 11.3221 34.7279 12.0207 34.0707 13.0037V11.5403H31.4628V22.831H34.092V16.6945C34.092 14.969 35.1875 13.7462 36.809 13.7462C38.3211 13.7462 39.2627 14.8161 39.2627 16.3671V22.8318H41.8919V16.1712C41.8929 13.3311 40.4253 11.3221 37.5546 11.3221ZM91.0827 16.826C91.0827 13.5941 88.7164 11.3229 85.5391 11.3229C82.165 11.3229 79.6889 13.8562 79.6889 17.1972C79.6889 20.7136 82.3402 23.0501 85.5831 23.0501C88.3221 23.0501 90.4693 21.4337 91.0167 19.141H88.2774C87.8831 20.1456 86.9191 20.7136 85.6261 20.7136C83.9385 20.7136 82.6676 19.6652 82.3832 17.8306H91.082V16.826H91.0827ZM82.537 15.9521C82.9539 14.3795 84.1368 13.6156 85.4954 13.6156C86.9851 13.6156 88.1246 14.4672 88.3875 15.9521H82.537Z" fill="var(--fill-0, #5C5C5C)" fill-opacity="0.9"/>
</g>
<defs>
<clipPath id="clip0_0_7">
<rect width="91.5211" height="32.5408" fill="white"/>
</clipPath>
</defs>
</svg>
