<svg preserveAspectRatio="none" width="100%" height="100%" overflow="visible" style="display: block;" viewBox="0 0 86.0976 32.5408" fill="none" xmlns="http://www.w3.org/2000/svg">
<g id="logos">
<g id="Vector">
<path fill-rule="evenodd" clip-rule="evenodd" d="M83.3553 21.681C83.407 22.2705 83.8784 23.0208 84.6958 23.0208H85.1734C85.3591 23.0208 85.5109 22.869 85.5109 22.6835V12.1717H85.5086C85.4993 11.9946 85.3529 11.8527 85.1734 11.8527H83.6928C83.5133 11.8527 83.3669 11.9946 83.3577 12.1717H83.3553V13.0258C82.4478 11.9073 81.0172 11.443 79.5828 11.443C76.3216 11.443 73.6781 14.0886 73.6781 17.3524C73.6781 20.6163 76.3216 23.2619 79.5828 23.2619C81.0172 23.2619 82.5811 22.7052 83.3553 21.6797V21.681ZM79.5882 21.1938C77.5143 21.1938 75.833 19.4741 75.833 17.3524C75.833 15.2311 77.5143 13.5113 79.5882 13.5113C81.6628 13.5113 83.3438 15.2311 83.3438 17.3524C83.3438 19.4741 81.6628 21.1938 79.5882 21.1938Z" fill="#5C5C5C" fill-opacity="0.9"/>
<path fill-rule="evenodd" clip-rule="evenodd" d="M71.8052 16.603C71.8052 13.5369 69.8724 11.4684 66.7902 11.4684C65.3189 11.4684 64.1128 12.3198 63.6867 13.0512C63.5947 12.4793 63.2913 11.8782 62.3504 11.8782H61.8709C61.6854 11.8782 61.5339 12.0301 61.5339 12.2156V21.7073C61.5339 21.7076 61.5339 21.7083 61.5339 21.7087V22.7283H61.5358C61.5455 22.9051 61.6919 23.0471 61.871 23.0471H63.3521C63.3747 23.0471 63.397 23.0444 63.4185 23.0403C63.4283 23.0383 63.4374 23.0345 63.4469 23.0318C63.4579 23.0284 63.4694 23.0258 63.4799 23.0215C63.4931 23.016 63.505 23.0087 63.5173 23.0018C63.5233 22.9981 63.5296 22.9956 63.5354 22.9917C63.5502 22.9822 63.5637 22.9707 63.5768 22.959C63.579 22.9568 63.5815 22.9554 63.5837 22.9534C63.5984 22.9391 63.6119 22.9234 63.6237 22.9071C63.6608 22.8561 63.6834 22.7945 63.6871 22.7283H63.6891V16.5187C63.6891 14.8719 65.0231 13.5369 66.6687 13.5369C68.3143 13.5369 69.6484 14.8719 69.6484 16.5187L69.6497 21.7091L69.6501 21.7073C69.6501 21.7119 69.6508 21.7166 69.6508 21.7215V22.7283H69.6528C69.6626 22.9051 69.8089 23.0471 69.9879 23.0471H71.4691C71.4919 23.0471 71.514 23.0444 71.5354 23.0403C71.5442 23.0386 71.5523 23.0351 71.5609 23.0327C71.573 23.0292 71.5855 23.0262 71.5971 23.0215C71.6092 23.0164 71.6202 23.0094 71.6317 23.003C71.6387 22.999 71.646 22.9962 71.6527 22.9917C71.6663 22.9827 71.6789 22.9718 71.6912 22.9611C71.6943 22.9582 71.6979 22.956 71.7008 22.9531C71.7149 22.9396 71.7274 22.9249 71.7388 22.9096C71.7396 22.9084 71.7405 22.9075 71.7414 22.9064C71.7779 22.8559 71.8002 22.795 71.8041 22.7292C71.8041 22.7287 71.8042 22.7283 71.8042 22.7283H71.8062L71.8052 16.603Z" fill="#5C5C5C" fill-opacity="0.9"/>
<path fill-rule="evenodd" clip-rule="evenodd" d="M56.3811 21.6809C56.4329 22.2704 56.9044 23.0208 57.7214 23.0208H58.1993C58.3846 23.0208 58.5363 22.8689 58.5363 22.6835V12.1717H58.5343C58.5247 11.9946 58.3782 11.8527 58.1993 11.8527H56.7182C56.5391 11.8527 56.3928 11.9946 56.3828 12.1717H56.3811V13.0258C55.4736 11.9073 54.043 11.443 52.6083 11.443C49.3473 11.443 46.7038 14.0886 46.7038 17.3524C46.7038 20.6163 49.3473 23.262 52.6083 23.262C54.043 23.262 55.6065 22.7052 56.381 21.6796L56.3811 21.6809ZM52.6141 21.1937C50.5402 21.1937 48.8588 19.4741 48.8588 17.3524C48.8588 15.2311 50.5402 13.5113 52.6141 13.5113C54.6881 13.5113 56.3693 15.2311 56.3693 17.3524C56.3693 19.4741 54.6881 21.1937 52.6141 21.1937Z" fill="#5C5C5C" fill-opacity="0.9"/>
<path fill-rule="evenodd" clip-rule="evenodd" d="M37.9454 20.1754C38.9341 20.8609 40.0133 21.1939 41.0504 21.1939C42.0384 21.1939 43.0599 20.6813 43.0599 19.789C43.0599 18.5979 40.8342 18.4125 39.4358 17.9369C38.0371 17.4612 36.8325 16.478 36.8325 14.8857C36.8325 12.4492 39.0018 11.4429 41.0265 11.4429C42.3093 11.4429 43.6329 11.8662 44.491 12.4727C44.7865 12.6968 44.6066 12.9541 44.6066 12.9541L43.7874 14.1249C43.6954 14.2568 43.5344 14.3707 43.3033 14.228C43.0722 14.0853 42.2617 13.5112 41.0265 13.5112C39.7911 13.5112 39.047 14.0821 39.047 14.7898C39.047 15.6383 40.0141 15.9052 41.1469 16.1945C43.121 16.727 45.2744 17.3671 45.2744 19.789C45.2744 21.9358 43.268 23.2624 41.0504 23.2624C39.37 23.2624 37.9393 22.783 36.7393 21.9018C36.4893 21.6514 36.6639 21.4189 36.6639 21.4189L37.479 20.254C37.6449 20.0362 37.854 20.1122 37.9454 20.1754Z" fill="#5C5C5C" fill-opacity="0.9"/>
<path fill-rule="evenodd" clip-rule="evenodd" d="M32.2517 21.6809C32.3034 22.2704 32.775 23.0208 33.5918 23.0208H34.0698C34.2551 23.0208 34.4069 22.8689 34.4069 22.6835V12.1717H34.4049C34.3952 11.9946 34.2489 11.8527 34.0698 11.8527H32.5888C32.4097 11.8527 32.2634 11.9946 32.2534 12.1717H32.2517V13.0258C31.3442 11.9073 29.9136 11.443 28.4789 11.443C25.2179 11.443 22.5742 14.0886 22.5742 17.3524C22.5742 20.6163 25.2179 23.262 28.4789 23.262C29.9136 23.262 31.477 22.7052 32.2514 21.6796L32.2517 21.6809ZM28.4847 21.1937C26.4106 21.1937 24.7293 19.4741 24.7293 17.3524C24.7293 15.2311 26.4106 13.5113 28.4847 13.5113C30.5586 13.5113 32.2398 15.2311 32.2398 17.3524C32.2398 19.4741 30.5586 21.1937 28.4847 21.1937Z" fill="#5C5C5C" fill-opacity="0.9"/>
</g>
<path id="Vector_2" fill-rule="evenodd" clip-rule="evenodd" d="M14.2973 17.7541C12.1028 17.7541 10.3237 19.5332 10.3237 21.7279C10.3237 23.9225 12.1028 25.7015 14.2973 25.7015C16.4919 25.7015 18.2709 23.9225 18.2709 21.7279C18.2709 19.5332 16.4919 17.7541 14.2973 17.7541ZM3.9736 17.7545C1.77906 17.7545 0 19.5332 0 21.7279C0 23.9225 1.77906 25.7015 3.9736 25.7015C6.16824 25.7015 7.94739 23.9225 7.94739 21.7279C7.94739 19.5332 6.16824 17.7545 3.9736 17.7545ZM13.109 12.787C13.109 14.9817 11.3301 16.7609 9.13547 16.7609C6.94085 16.7609 5.16188 14.9817 5.16188 12.787C5.16188 10.5927 6.94085 8.81348 9.13547 8.81348C11.3301 8.81348 13.109 10.5927 13.109 12.787Z" fill="var(--fill-0, #5C5C5C)" fill-opacity="0.9"/>
</g>
</svg>
