<svg preserveAspectRatio="none" width="100%" height="100%" overflow="visible" style="display: block;" viewBox="0 0 100.334 32.5408" fill="none" xmlns="http://www.w3.org/2000/svg">
<g id="logos">
<g id="Vector">
<path d="M0.162222 17.7654L10.7075 28.3107C5.32237 27.4004 1.07249 23.1506 0.162222 17.7654Z" fill="#5C5C5C" fill-opacity="0.9"/>
<path d="M0 14.9026L13.5704 28.4729C14.3774 28.4298 15.1647 28.3124 15.9256 28.1276L0.345361 12.5473C0.160478 13.3082 0.0431223 14.0955 0 14.9026Z" fill="#5C5C5C" fill-opacity="0.9"/>
<path d="M1.02087 10.522L17.951 27.4521C18.5676 27.1875 19.1594 26.8761 19.722 26.5225L1.9505 8.75102C1.59688 9.31358 1.28552 9.90541 1.02087 10.522Z" fill="#5C5C5C" fill-opacity="0.9"/>
<path d="M3.09742 7.19743C5.46132 4.4507 8.96327 2.71143 12.8715 2.71143C19.9904 2.71143 25.7615 8.48248 25.7615 15.6015C25.7615 19.5097 24.0222 23.0116 21.2755 25.3755L3.09742 7.19743Z" fill="#5C5C5C" fill-opacity="0.9"/>
</g>
<path id="Vector_2" d="M39.1914 23.3208H48.6362V20.7489H42.3109V8.5665H39.1914V23.3208ZM50.6443 23.3208H53.7134V12.2551H50.6443V23.3208ZM52.186 10.9439C53.0795 10.9439 53.8503 10.2667 53.8503 9.38778C53.8503 8.51607 53.0795 7.83887 52.186 7.83887C51.2999 7.83887 50.5291 8.51607 50.5291 9.38778C50.5291 10.2667 51.2999 10.9439 52.186 10.9439ZM59.2409 16.9234C59.248 15.497 60.0981 14.6613 61.3372 14.6613C62.5692 14.6613 63.3113 15.4682 63.3041 16.8226V23.3208H66.3731V16.2751C66.3731 13.6959 64.8602 12.111 62.5548 12.111C60.9122 12.111 59.7235 12.9179 59.2265 14.2074H59.0967V12.2551H56.1718V23.3208H59.2409V16.9234ZM73.8637 23.537C76.6085 23.537 78.4457 22.2041 78.8779 20.1509L76.0466 19.9636C75.7367 20.8066 74.9371 21.246 73.9213 21.246C72.3868 21.246 71.4142 20.2302 71.4142 18.5804V18.5732H78.9499V17.7303C78.9499 13.9697 76.6733 12.111 73.7484 12.111C70.4921 12.111 68.3813 14.4236 68.3813 17.8384C68.3813 21.3469 70.4633 23.537 73.8637 23.537ZM71.4142 16.6713C71.4719 15.4105 72.4373 14.4019 73.7989 14.4019C75.1244 14.4019 76.0466 15.3529 76.061 16.6713H71.4142ZM84.1514 23.5298C85.7867 23.5298 86.8458 22.8166 87.3861 21.7863H87.4725V23.3208H90.3831V15.8572C90.3831 13.2204 88.1282 12.111 85.7363 12.111C83.0131 12.111 81.2913 13.3789 80.8662 15.3961L83.7047 15.6267C83.9136 14.8918 84.5692 14.3515 85.6715 14.3515C86.7305 14.3515 87.3069 14.8702 87.3141 15.7996C87.3213 16.5272 86.5576 16.6353 84.634 16.8226C82.4439 17.0243 80.4772 17.7591 80.4772 20.2302C80.4772 22.4203 82.0405 23.5298 84.1514 23.5298ZM85.0303 21.4117C84.0865 21.4117 83.4094 20.9722 83.4094 20.1293C83.4094 19.2648 84.1226 18.8397 85.2032 18.6885C85.8731 18.5948 86.9682 18.4363 87.3356 18.1914V19.3657C87.3356 20.5256 86.3775 21.4117 85.0303 21.4117ZM92.764 23.3208H95.8331V17.0603C95.8402 15.7059 96.8201 14.7766 98.0592 14.7766C98.477 14.7766 98.8157 14.8918 99.1038 15.0359L100.026 12.5C99.6225 12.2551 99.1038 12.0966 98.5131 12.0966C97.2667 12.0966 96.2581 12.817 95.8546 14.1858H95.7395V12.2551H92.764V23.3208Z" fill="var(--fill-0, #5C5C5C)" fill-opacity="0.9"/>
</g>
</svg>
